<svg xmlns="http://www.w3.org/2000/svg" x="0px" y="0px" width="186.657px" height="320px"><path fill="#000" d="M92.12,320c-23.588,0-47.187-8.984-65.199-26.914c-35.897-35.977-35.897-94.491,0-130.384l81.132-79.379c4.609-4.648,7.275-11.021,7.275-17.852c0-6.796-2.666-13.197-7.422-18.046c-9.927-9.922-26.094-9.883-36.093,0.039c-9.854,9.917-9.854,26.088,0.068,36.02l-28.32,28.32c-25.498-25.552-25.498-67.069-0.029-92.621c25.62-25.59,67.108-25.551,92.636-0.039c12.421,12.378,19.218,28.867,19.218,46.366c0,17.5-6.797,33.95-19.218,46.294l-81.107,79.34c-20.2,20.155-20.2,53.271,0.2,73.621c20.312,20.352,53.446,20.312,73.837,0c20.282-20.351,20.282-53.476,0-73.787l-14.229-14.141l43.505-43.477l28.281,28.281l-16.719,16.719c22.656,35.624,18.516,83.592-12.588,114.686C139.371,311.016,115.708,320,92.12,320L92.12,320z"/></svg>
