<svg xmlns="http://www.w3.org/2000/svg" x="0px" y="0px" width="320px" height="317.998px"><path d="M210,140l57.002-97.002c-30-25.996-70-42.998-110-42.998c-10,0-20,1.201-29.004,2.9l80,140L210,140z"/><path d="M200,200h110c10-10,10-30,10-40c0-38.999-14.004-73.999-37.002-100l-80,140H200z"/><path d="M160,100L106.001,7.998c-43.999,15-80,48.003-98.003,92.002h150H160z"/><path d="M160,220l54.004,90.996c43.994-15,80-47.998,97.998-90.996h-150H160z"/><path d="M120,120H10c-7.7,10-10,30-10,40c0,39.004,13.999,74.004,37.998,100L120,120z"/><path d="M110,180l-57.002,97.998c27.002,20,67.002,40,110,40c10,0,21.006-1.201,30-2.998l-80-140L110,180z"/></svg>
