<svg xmlns="http://www.w3.org/2000/svg" x="0px" y="0px" width="319.993px" height="320px"><path fill="#010101" d="M159.964,213.319c0-29.454-23.912-53.321-53.36-53.321c-29.454,0-53.321,23.867-53.321,53.321l0.039,0.039C53.282,252.812,31.841,287.227,0,305.664l0.161,0.195C15.82,314.844,33.951,320,53.321,320c58.912,0,106.682-47.773,106.682-106.681H159.964z"/><path fill="#010101" d="M308.267,11.714c-15.615-15.62-40.948-15.62-56.563,0L137.702,125.695c26.412,9.41,47.193,30.201,56.559,56.607L308.267,68.278C323.901,52.657,323.901,27.335,308.267,11.714z"/></svg>
