<svg xmlns="http://www.w3.org/2000/svg" x="0px" y="0px" width="320.004px" height="200px"><path fill="#010101" d="M240.9,39.912c-3.799,0-7.402,0.61-10.996,1.099c-10-25-40-41.001-70.004-41.001c-30,0-56.002,17.002-69,41.001c-3.998,0-7.002-1.001-11-1.001c-44,0-80,36.001-80,80c0,44.004,36,80,80,80h160.004c43.994,0,80-35.996,80-80c0-43.999-40-80-80-80L240.9,39.912z M240.9,159.912h-160c-22.002,0-40-17.998-40-40s19-38.999,40-38.999c0.078,9.399,1.699,18.999,5,26.997l37.002-13.999V77.91c0-21.997,17.998-40,40-40c12.998,0,25,6.401,32.002,16.001c-20,15-30.004,38.003-30.004,63.999h40.004c0-21.997,17.998-40,40-40c21.992,0,40,18.003,40,40c0,20-20,40-40,40L240.9,159.912z"/></svg>
