<svg xmlns="http://www.w3.org/2000/svg" x="0px" y="0px" width="324.402px" height="320.3px"><path fill="#010101" d="M323.962,180.542v-40.001l-47.999-20c-1.299-3.799-2.705-7.402-4.404-11.001l19.004-47.998l-30-30l-48.008,20c-3.594-1.802-7.295-3.198-10.996-4.6l-20-47.002h-40.001l-20,47.002c-3.999,1.401-7.798,2.9-11.997,4.697L61.558,32.641l-30,27.998l19.004,47.002c-1.001,0-3.003,10-4.004,10l-46.998,20v40.001l46.998,20c1.401,4.102,3.003,7.998,4.902,12.002l-18.999,46.992l27.998,28.008l47.002-19.004c3.799,1.797,7.7,3.203,11.997,4.6l20,50.001h40.001l20-47.999c3.799-1.396,7.5-2.9,11.006-4.6l47.998,18.994l27.998-27.988l-20-48.008c1.699-3.594,2.998-7.197,4.395-10.996l50.001-20L323.962,180.542z M163.961,220.542c-32.999,0-60.001-27.002-60.001-60c0-32.999,27.002-60.001,60.001-60.001c32.998,0,60,27.002,60,60.001C223.961,193.54,193.961,220.542,163.961,220.542z"/></svg>
