<svg xmlns="http://www.w3.org/2000/svg" x="0px" y="0px" width="320px" height="318.281px"><path fill="#000" d="M160,118.281c22.09,0,40,17.905,40,40c0,22.09-17.91,40-40,40s-40-17.91-40-40C120,136.187,137.91,118.281,160,118.281z"/><path fill="#000" d="M285.547,60.469c-3.438,2.812-7.617,4.692-12.422,4.692c-11.016,0-20-8.911-20-20c0-4.839,1.953-9.141,4.844-12.661c-22.188-17.109-49.062-28.628-78.359-32.271c-1.016,10.083-9.219,18.052-19.609,18.052S141.289,10.229,140.391,0c-29.692,3.828-56.719,15.552-79.102,33.281c2.539,3.359,4.341,7.339,4.341,11.88c0,11.089-8.911,20-20,20c-4.448,0-8.438-1.724-11.758-4.224C12.969,87.969,0,121.479,0,158.281c0,88.359,71.641,160,160,160s160-71.641,160-160C320,121.128,306.875,87.461,285.547,60.469z M160,238.281c-44.18,0-80-35.82-80-80c0-22.109,8.95-42.07,23.442-56.562L160,45.161l56.484,56.479C231.016,116.128,240,136.172,240,158.281C240,202.5,204.18,238.281,160,238.281z"/></svg>