<svg xmlns="http://www.w3.org/2000/svg" x="0px" y="0px" width="275.984px" height="322px"><path fill="#000" d="M198.197,0v38.999C198.197,55,191.996,70,180.199,81L70.2,190.995c-19.004,20-28.003,40-30,69.999h-40l60,60l59.999-60h-40c0.996-13.984,6.797-27.997,16.997-37.997l110.005-110c20-18.999,30-44.999,30-70.995V2.998h-40L198.197,0z"/><path fill="#000" d="M238.197,259.998c-1.094-24.999-10.996-47.997-29.004-65.995l-21.992-22.002l-30,30l21.992,22.002c10,10,16.006,23.983,16.992,37.997h-40l60,60l59.999-60h-39.999L238.197,259.998z"/></svg>
