<svg xmlns="http://www.w3.org/2000/svg" x="0px" y="0px" width="240px" height="320px"><path fill="#000" d="M120,160c22.002,0,40-17.998,40-40V40c0-22.002-17.998-40-40-40S80,17.998,80,40v80C80,140,97.998,160,120,160z"/><path fill="#000" d="M160,280h-20v-42.002c60-10,100-60,100-120V98.999c0-11.001-9.004-20-20-20s-20,8.999-20,20v20c0,43.999-35.996,80.005-80,80.005c-43.999,0-80-36.006-80-80.005V100c0-11.001-8.999-20-20-20S0,88.999,0,100v20c0,59.004,42.998,110,100,120v40H80c-22.002,0-40,17.998-40,40h160C200,300,180,280,160,280z"/></svg>
