<svg xmlns="http://www.w3.org/2000/svg" x="0px" y="0px" width="279.934px" height="319.22px"><path fill="#000" d="M110.001,319.22c-29.391,0-57.013-11.484-77.77-32.266C11.45,266.173,0,238.595,0,209.181c0.02-29.375,11.45-56.993,32.231-77.75L143.59,22.48c29.917-29.942,82.769-30.059,112.965,0.161c31.172,31.206,31.172,81.948,0,113.12l-100.196,97.755c-19.297,19.297-51.016,19.336-70.508-0.166c-19.488-19.531-19.488-51.23,0-70.719l38.789-38.794l28.281,28.281l-38.789,38.79c-2.559,2.568-2.93,5.537-2.93,7.07c0,1.543,0.371,4.512,2.93,7.09c5.117,5.088,9.019,5.088,14.141,0l100.156-97.77c15.43-15.41,15.43-40.781-0.156-56.392c-15.117-15.117-41.445-15.117-56.562,0L60.352,159.858C47.29,172.93,40,190.489,40,209.181c0,18.711,7.29,36.289,20.508,49.492c26.451,26.484,72.545,26.484,98.985,0l50-50l28.271,28.281l-50,50C166.993,307.735,139.381,319.22,110.001,319.22z"/></svg>
