<svg xmlns="http://www.w3.org/2000/svg" x="0px" y="0px" width="319.98px" height="320px"><path fill="#000" d="M316.064,56.431L265.84,106.66h-52.5V53.34l49.609-49.59C255.615,1.538,248.037,0,239.98,0C195.82,0,160,35.84,160,80c0,12.319,3.008,23.848,8.008,34.302L7.808,274.453C3.008,279.297,0,285.938,0,293.359C0,308.047,11.909,320,26.68,320c7.378,0,14.062-2.969,18.828-7.812l160.234-160.176c10.41,4.961,21.963,7.988,34.238,7.988c44.219,0,80-35.84,80-80C319.98,71.738,318.418,63.931,316.064,56.431z"/></svg>
